<?xml version="1.0" encoding="utf-8"?>
<!-- Generator: Adobe Illustrator 23.0.3, SVG Export Plug-In . SVG Version: 6.00 Build 0)  -->
<svg version="1.1" id="Layer_1" xmlns="http://www.w3.org/2000/svg" xmlns:xlink="http://www.w3.org/1999/xlink" x="0px" y="0px"
	 viewBox="0 0 273 288" style="enable-background:new 0 0 273 288;" xml:space="preserve">
<style type="text/css">
	.st0{fill:#FFFFFF;}
</style>
<path d="M251,133c0,7.67,0,15.33,0,23c-0.31,1.27-0.69,2.53-0.92,3.82c-7.6,43.68-31.37,74.44-73.16,90.16
	c-9.51,3.58-19.93,4.75-29.93,7.02c-5.33,0-10.67,0-16,0c-0.95-0.25-1.89-0.6-2.85-0.72c-45.02-5.72-76.39-29.6-93.3-71.58
	c-4.14-10.28-5.31-21.77-7.85-32.7c0-5,0-10,0-15c0.26-1.28,0.64-2.54,0.76-3.83c4.01-44.29,35.7-83.24,78.54-96.03
	c7.72-2.31,15.79-3.45,23.7-5.13c4.67,0,9.33,0,14,0c3.62,0.37,7.28,0.53,10.86,1.16c41.08,7.17,70.72,29.43,87.23,67.86
	C246.43,111.09,248.1,122.31,251,133z M148.89,159.84c0.99,2.64,1.64,4.29,2.22,5.97c3.67,10.49,7.22,21.03,11.05,31.47
	c1.69,4.63,4.77,5.14,8.27,1.72c3.21-3.15,6.25-6.47,9.55-9.52c2.59-2.4,3.25-4.98,2.6-8.48c-2.71-14.53-5.25-29.1-7.56-43.7
	c-0.3-1.87,0.59-4.52,1.88-5.95c5.58-6.17,11.64-11.91,17.3-18.01c6.2-6.7,5.69-16.82-0.9-23.31c-6.5-6.4-16.16-6.73-22.88-0.48
	c-6.09,5.67-11.97,11.58-17.81,17.5c-1.88,1.91-3.49,2.81-6.44,2.2c-10.57-2.17-21.26-3.75-31.86-5.81
	c-17.21-3.34-17.2-3.43-28.8,9.73c-3.84,4.36-3.35,6.8,2.12,8.77c9.68,3.5,19.44,6.78,29.15,10.19c2.41,0.85,4.77,1.83,8.31,3.19
	c-6.52,6.25-12.21,11.85-18.1,17.23c-1.04,0.95-3.19,1.74-4.35,1.31c-5.88-2.21-9.84,0.36-13.51,4.51c-2.2,2.49-4.79,4.63-7.04,7.08
	c-3.31,3.59-2.97,6.08,1.35,8.2c4.91,2.41,10.12,4.23,14.97,6.74c2,1.04,3.94,2.94,4.98,4.93c2.6,5,4.56,10.32,6.99,15.41
	c2.01,4.21,4.33,4.69,7.72,1.57c3.43-3.15,6.53-6.65,9.91-9.85c2.69-2.56,3.62-5.31,2.42-8.98c-0.52-1.59-0.78-4.2,0.11-5.15
	C136.26,172.17,142.34,166.35,148.89,159.84z"/>
<path class="st0" d="M148.89,159.84c-6.55,6.51-12.63,12.33-18.36,18.48c-0.89,0.96-0.63,3.57-0.11,5.15
	c1.2,3.67,0.27,6.42-2.42,8.98c-3.38,3.21-6.48,6.7-9.91,9.85c-3.39,3.12-5.71,2.64-7.72-1.57c-2.43-5.09-4.39-10.42-6.99-15.41
	c-1.04-1.99-2.98-3.89-4.98-4.93c-4.85-2.51-10.06-4.33-14.97-6.74c-4.33-2.12-4.66-4.61-1.35-8.2c2.25-2.45,4.84-4.59,7.04-7.08
	c3.67-4.16,7.63-6.72,13.51-4.51c1.15,0.43,3.31-0.36,4.35-1.31c5.89-5.38,11.58-10.98,18.1-17.23c-3.54-1.36-5.9-2.34-8.31-3.19
	c-9.71-3.41-19.47-6.69-29.15-10.19c-5.47-1.98-5.96-4.41-2.12-8.77c11.6-13.16,11.59-13.08,28.8-9.73
	c10.6,2.06,21.29,3.64,31.86,5.81c2.95,0.6,4.56-0.3,6.44-2.2c5.84-5.93,11.72-11.84,17.81-17.5c6.72-6.25,16.37-5.92,22.88,0.48
	c6.6,6.49,7.11,16.61,0.9,23.31c-5.66,6.11-11.71,11.84-17.3,18.01c-1.29,1.43-2.18,4.08-1.88,5.95c2.31,14.6,4.85,29.17,7.56,43.7
	c0.65,3.5,0,6.08-2.6,8.48c-3.3,3.05-6.34,6.38-9.55,9.52c-3.49,3.42-6.57,2.91-8.27-1.72c-3.82-10.44-7.37-20.97-11.05-31.47
	C150.52,164.13,149.87,162.48,148.89,159.84z"/>
</svg>
