<?xml version="1.0" encoding="utf-8"?>
<!-- Generator: Adobe Illustrator 23.0.3, SVG Export Plug-In . SVG Version: 6.00 Build 0)  -->
<svg version="1.1" id="Layer_1" xmlns="http://www.w3.org/2000/svg" xmlns:xlink="http://www.w3.org/1999/xlink" x="0px" y="0px"
	 viewBox="0 0 187 288" style="enable-background:new 0 0 187 288;" xml:space="preserve">
<style type="text/css">
	.st0{fill:#FF3333;}
	.st1{fill:#FFFFFF;}
</style>
<g>
	<path class="st0" d="M98.64,32.73c6.28,1.53,12.7,2.63,18.81,4.67c44.57,14.88,63.56,66.96,39.73,107.9
		c-19.93,34.22-39.48,68.66-59.23,102.99c-1.21,2.1-2.59,4.11-4.41,6.98c-3.69-6.37-6.93-11.92-10.14-17.5
		c-18.58-32.3-37.55-64.39-55.61-96.98C9.26,107.35,22.9,62.35,56.22,43.55c9.01-5.08,18.5-8.18,28.62-9.72
		c1.29-0.2,2.53-0.72,3.8-1.09C91.97,32.73,95.3,32.73,98.64,32.73z M121.99,107.51c0.02-15.76-12.94-28.67-28.67-28.57
		c-15.41,0.1-28.09,13.07-28.04,28.68c0.05,15.56,12.71,28.11,28.41,28.19C109.2,135.88,121.97,123.12,121.99,107.51z"/>
	<path class="st1" d="M121.99,107.51c-0.02,15.6-12.79,28.37-28.29,28.29c-15.7-0.08-28.36-12.63-28.41-28.19
		c-0.05-15.61,12.63-28.58,28.04-28.68C109.05,78.84,122.01,91.76,121.99,107.51z"/>
</g>
</svg>
